<mxfile host="app.diagrams.net" agent="Mozilla/5.0 (X11; Linux x86_64; rv:140.0) Gecko/20100101 Firefox/140.0" version="28.0.7">
  <diagram name="Page-1" id="W7h82pB8wuSVj-rLq_c0">
    <mxGraphModel dx="1358" dy="866" grid="1" gridSize="10" guides="1" tooltips="1" connect="1" arrows="1" fold="1" page="1" pageScale="1" pageWidth="850" pageHeight="1100" math="0" shadow="0">
      <root>
        <mxCell id="0" />
        <mxCell id="1" parent="0" />
        <mxCell id="NiFAVTETCT9OuFBgH3vW-12" value="" style="rounded=1;whiteSpace=wrap;html=1;fillColor=none;strokeColor=#10739e;dashed=1;strokeWidth=2;" vertex="1" parent="1">
          <mxGeometry x="380" y="120" width="400" height="270" as="geometry" />
        </mxCell>
        <mxCell id="NiFAVTETCT9OuFBgH3vW-1" value="" style="rounded=1;whiteSpace=wrap;html=1;fillColor=none;dashed=1;strokeColor=#10739e;strokeWidth=2;" vertex="1" parent="1">
          <mxGeometry x="30" y="120" width="200" height="270" as="geometry" />
        </mxCell>
        <mxCell id="NiFAVTETCT9OuFBgH3vW-2" value="&lt;b&gt;&lt;font style=&quot;color: light-dark(rgb(0, 0, 0), rgb(255, 255, 255)); font-size: 17px;&quot;&gt;Another room&lt;/font&gt;&lt;/b&gt;" style="text;html=1;align=center;verticalAlign=middle;whiteSpace=wrap;rounded=0;" vertex="1" parent="1">
          <mxGeometry x="75" y="130" width="110" height="60" as="geometry" />
        </mxCell>
        <mxCell id="NiFAVTETCT9OuFBgH3vW-3" value="&lt;b&gt;&lt;font style=&quot;font-size: 15px;&quot;&gt;Laptop&lt;/font&gt;&lt;/b&gt;" style="rounded=1;whiteSpace=wrap;html=1;fillColor=#d0cee2;strokeColor=#56517e;strokeWidth=2;" vertex="1" parent="1">
          <mxGeometry x="45" y="330" width="100" height="50" as="geometry" />
        </mxCell>
        <mxCell id="NiFAVTETCT9OuFBgH3vW-4" value="" style="endArrow=none;html=1;rounded=0;fillColor=#b1ddf0;strokeColor=#10739e;strokeWidth=3;" edge="1" parent="1">
          <mxGeometry width="50" height="50" relative="1" as="geometry">
            <mxPoint x="230" y="190" as="sourcePoint" />
            <mxPoint x="380" y="190" as="targetPoint" />
          </mxGeometry>
        </mxCell>
        <mxCell id="NiFAVTETCT9OuFBgH3vW-5" value="" style="endArrow=none;html=1;rounded=0;fillColor=#b1ddf0;strokeColor=#10739e;strokeWidth=3;" edge="1" parent="1">
          <mxGeometry width="50" height="50" relative="1" as="geometry">
            <mxPoint x="230" y="200" as="sourcePoint" />
            <mxPoint x="380" y="200" as="targetPoint" />
          </mxGeometry>
        </mxCell>
        <mxCell id="NiFAVTETCT9OuFBgH3vW-6" value="&lt;b&gt;&lt;font style=&quot;font-size: 15px;&quot;&gt;Cat6A runs&lt;/font&gt;&lt;/b&gt;" style="text;html=1;align=center;verticalAlign=middle;whiteSpace=wrap;rounded=0;" vertex="1" parent="1">
          <mxGeometry x="250" y="160" width="110" height="30" as="geometry" />
        </mxCell>
        <mxCell id="NiFAVTETCT9OuFBgH3vW-8" value="" style="endArrow=none;html=1;rounded=0;exitX=1;exitY=0.5;exitDx=0;exitDy=0;fillColor=#b0e3e6;strokeColor=#0e8088;strokeWidth=3;" edge="1" parent="1" source="NiFAVTETCT9OuFBgH3vW-3">
          <mxGeometry width="50" height="50" relative="1" as="geometry">
            <mxPoint x="340" y="480" as="sourcePoint" />
            <mxPoint x="240" y="190" as="targetPoint" />
            <Array as="points">
              <mxPoint x="190" y="355" />
              <mxPoint x="190" y="197" />
            </Array>
          </mxGeometry>
        </mxCell>
        <mxCell id="NiFAVTETCT9OuFBgH3vW-9" value="&lt;font style=&quot;font-size: 14px;&quot; face=&quot;Lucida Console&quot;&gt;&lt;b&gt;vmbr0&lt;/b&gt;&lt;/font&gt;" style="rounded=1;whiteSpace=wrap;html=1;fillColor=#fad7ac;strokeColor=#b46504;strokeWidth=2;" vertex="1" parent="1">
          <mxGeometry x="520" y="290" width="105" height="60" as="geometry" />
        </mxCell>
        <mxCell id="NiFAVTETCT9OuFBgH3vW-10" value="&lt;div&gt;&lt;font style=&quot;font-size: 14px;&quot;&gt;&lt;b&gt;enp6s0&lt;/b&gt;&lt;/font&gt;&lt;/div&gt;&lt;div&gt;&lt;font style=&quot;font-size: 14px;&quot;&gt;&lt;b&gt;(SFP+ uplink)&lt;/b&gt;&lt;/font&gt;&lt;/div&gt;" style="rounded=1;whiteSpace=wrap;html=1;fillColor=#fad9d5;strokeColor=#ae4132;strokeWidth=2;" vertex="1" parent="1">
          <mxGeometry x="523.75" y="240" width="97.5" height="40" as="geometry" />
        </mxCell>
        <mxCell id="NiFAVTETCT9OuFBgH3vW-11" value="&lt;div&gt;&lt;font style=&quot;font-size: 13px;&quot;&gt;&lt;b&gt;enp7s0f0&lt;/b&gt;&lt;/font&gt;&lt;/div&gt;&lt;div&gt;&lt;font style=&quot;font-size: 13px;&quot;&gt;&lt;b&gt;enp7s0f1&lt;/b&gt;&lt;/font&gt;&lt;/div&gt;&lt;div&gt;&lt;font style=&quot;font-size: 13px;&quot;&gt;&lt;b&gt;(10GbE RJ45)&lt;/b&gt;&lt;/font&gt;&lt;/div&gt;" style="rounded=1;whiteSpace=wrap;html=1;fillColor=#fad9d5;strokeColor=#ae4132;strokeWidth=2;" vertex="1" parent="1">
          <mxGeometry x="400" y="290" width="105" height="60" as="geometry" />
        </mxCell>
        <mxCell id="NiFAVTETCT9OuFBgH3vW-13" value="&lt;b&gt;&lt;font style=&quot;font-size: 16px;&quot;&gt;Lab&lt;/font&gt;&lt;/b&gt;" style="text;html=1;align=center;verticalAlign=middle;whiteSpace=wrap;rounded=0;" vertex="1" parent="1">
          <mxGeometry x="550" y="120" width="60" height="30" as="geometry" />
        </mxCell>
        <mxCell id="NiFAVTETCT9OuFBgH3vW-14" value="&lt;div&gt;&lt;font style=&quot;font-size: 13px;&quot;&gt;&lt;b&gt;Proxmox VE&lt;/b&gt;&lt;/font&gt;&lt;/div&gt;&lt;div&gt;&lt;font style=&quot;font-size: 13px;&quot;&gt;&lt;b&gt;10.100.10.18/28&lt;/b&gt;&lt;/font&gt;&lt;/div&gt;" style="rounded=1;whiteSpace=wrap;html=1;fillColor=#b0e3e6;strokeColor=#0e8088;strokeWidth=2;" vertex="1" parent="1">
          <mxGeometry x="640" y="290" width="120" height="60" as="geometry" />
        </mxCell>
        <mxCell id="NiFAVTETCT9OuFBgH3vW-15" value="" style="endArrow=none;html=1;rounded=0;entryX=0;entryY=0.5;entryDx=0;entryDy=0;exitX=1;exitY=0.5;exitDx=0;exitDy=0;fillColor=#b1ddf0;strokeColor=#10739e;" edge="1" parent="1" source="NiFAVTETCT9OuFBgH3vW-9" target="NiFAVTETCT9OuFBgH3vW-14">
          <mxGeometry width="50" height="50" relative="1" as="geometry">
            <mxPoint x="430" y="490" as="sourcePoint" />
            <mxPoint x="480" y="440" as="targetPoint" />
          </mxGeometry>
        </mxCell>
        <mxCell id="NiFAVTETCT9OuFBgH3vW-19" value="" style="endArrow=none;html=1;rounded=0;exitX=1;exitY=0.5;exitDx=0;exitDy=0;entryX=0;entryY=0.5;entryDx=0;entryDy=0;fillColor=#fad9d5;strokeColor=#ae4132;" edge="1" parent="1" source="NiFAVTETCT9OuFBgH3vW-11" target="NiFAVTETCT9OuFBgH3vW-9">
          <mxGeometry width="50" height="50" relative="1" as="geometry">
            <mxPoint x="430" y="490" as="sourcePoint" />
            <mxPoint x="480" y="440" as="targetPoint" />
          </mxGeometry>
        </mxCell>
        <mxCell id="NiFAVTETCT9OuFBgH3vW-20" value="" style="endArrow=none;html=1;rounded=0;exitX=0.5;exitY=0;exitDx=0;exitDy=0;entryX=0.5;entryY=1;entryDx=0;entryDy=0;fillColor=#fad9d5;strokeColor=#ae4132;" edge="1" parent="1" source="NiFAVTETCT9OuFBgH3vW-9" target="NiFAVTETCT9OuFBgH3vW-10">
          <mxGeometry width="50" height="50" relative="1" as="geometry">
            <mxPoint x="515" y="330" as="sourcePoint" />
            <mxPoint x="530" y="330" as="targetPoint" />
          </mxGeometry>
        </mxCell>
        <mxCell id="NiFAVTETCT9OuFBgH3vW-21" value="" style="endArrow=none;html=1;rounded=0;entryX=0.25;entryY=0;entryDx=0;entryDy=0;exitX=0;exitY=0.25;exitDx=0;exitDy=0;fillColor=#b0e3e6;strokeColor=#0e8088;strokeWidth=3;" edge="1" parent="1" source="NiFAVTETCT9OuFBgH3vW-12" target="NiFAVTETCT9OuFBgH3vW-11">
          <mxGeometry width="50" height="50" relative="1" as="geometry">
            <mxPoint x="430" y="480" as="sourcePoint" />
            <mxPoint x="480" y="430" as="targetPoint" />
            <Array as="points">
              <mxPoint x="426" y="188" />
            </Array>
          </mxGeometry>
        </mxCell>
        <mxCell id="NiFAVTETCT9OuFBgH3vW-22" value="&lt;b&gt;Untagged VLAN 30 traffic&lt;/b&gt;" style="text;html=1;align=center;verticalAlign=middle;whiteSpace=wrap;rounded=0;" vertex="1" parent="1">
          <mxGeometry x="530" y="400" width="80" height="60" as="geometry" />
        </mxCell>
        <mxCell id="NiFAVTETCT9OuFBgH3vW-23" value="&lt;b&gt;&lt;font style=&quot;font-size: 14px;&quot;&gt;CRS326&lt;/font&gt;&lt;/b&gt;" style="rounded=1;whiteSpace=wrap;html=1;fillColor=#fad7ac;strokeColor=#b46504;strokeWidth=3;" vertex="1" parent="1">
          <mxGeometry x="670" y="155" width="80" height="40" as="geometry" />
        </mxCell>
        <mxCell id="NiFAVTETCT9OuFBgH3vW-24" value="" style="endArrow=none;html=1;rounded=0;entryX=0;entryY=0.5;entryDx=0;entryDy=0;exitX=0.5;exitY=0;exitDx=0;exitDy=0;fillColor=#fad7ac;strokeColor=#b46504;strokeWidth=2;" edge="1" parent="1" source="NiFAVTETCT9OuFBgH3vW-10" target="NiFAVTETCT9OuFBgH3vW-23">
          <mxGeometry width="50" height="50" relative="1" as="geometry">
            <mxPoint x="430" y="480" as="sourcePoint" />
            <mxPoint x="480" y="430" as="targetPoint" />
            <Array as="points">
              <mxPoint x="573" y="175" />
            </Array>
          </mxGeometry>
        </mxCell>
        <mxCell id="NiFAVTETCT9OuFBgH3vW-25" value="&lt;div&gt;&lt;b&gt;Tagged traffic for VLANs 10, 30, 40&lt;/b&gt;&lt;/div&gt;&lt;div&gt;&lt;b&gt;Untagged for VLAN 20&lt;/b&gt;&lt;/div&gt;" style="text;html=1;align=center;verticalAlign=middle;whiteSpace=wrap;rounded=0;" vertex="1" parent="1">
          <mxGeometry x="440" y="135" width="130" height="60" as="geometry" />
        </mxCell>
        <mxCell id="NiFAVTETCT9OuFBgH3vW-26" value="" style="endArrow=openThin;html=1;rounded=0;exitX=0;exitY=0;exitDx=0;exitDy=0;strokeWidth=3;endFill=0;" edge="1" parent="1" source="NiFAVTETCT9OuFBgH3vW-22">
          <mxGeometry width="50" height="50" relative="1" as="geometry">
            <mxPoint x="430" y="480" as="sourcePoint" />
            <mxPoint x="510" y="330" as="targetPoint" />
          </mxGeometry>
        </mxCell>
        <mxCell id="NiFAVTETCT9OuFBgH3vW-27" value="&lt;b&gt;Untagged for VLAN 20&lt;/b&gt;" style="text;html=1;align=center;verticalAlign=middle;whiteSpace=wrap;rounded=0;" vertex="1" parent="1">
          <mxGeometry x="680" y="230" width="90" height="30" as="geometry" />
        </mxCell>
        <mxCell id="NiFAVTETCT9OuFBgH3vW-28" value="" style="endArrow=openThin;html=1;rounded=0;exitX=0;exitY=0.75;exitDx=0;exitDy=0;strokeWidth=3;endFill=0;" edge="1" parent="1" source="NiFAVTETCT9OuFBgH3vW-27">
          <mxGeometry width="50" height="50" relative="1" as="geometry">
            <mxPoint x="660" y="250" as="sourcePoint" />
            <mxPoint x="580" y="290" as="targetPoint" />
          </mxGeometry>
        </mxCell>
        <mxCell id="NiFAVTETCT9OuFBgH3vW-29" value="" style="endArrow=openThin;html=1;rounded=0;exitX=0;exitY=0.75;exitDx=0;exitDy=0;strokeWidth=3;endFill=0;" edge="1" parent="1" source="NiFAVTETCT9OuFBgH3vW-27">
          <mxGeometry width="50" height="50" relative="1" as="geometry">
            <mxPoint x="750" y="300" as="sourcePoint" />
            <mxPoint x="630" y="320" as="targetPoint" />
          </mxGeometry>
        </mxCell>
      </root>
    </mxGraphModel>
  </diagram>
</mxfile>
